<svg xmlns="http://www.w3.org/2000/svg" width="250" height="16"><path fill="#7E8083" d="M0 .281h1.51l3.255 9.066 1.226 3.42h.094l1.204-3.42L10.52.281h1.533v15.438H10.99V5.575c0-.64.015-1.333.047-2.074.031-.742.062-1.439.095-2.097h-.095L9.834 4.802l-3.348 9.231h-.943l-3.35-9.231L.968 1.405H.873c.031.657.059 1.356.082 2.097.024.741.035 1.434.035 2.073v10.144H0V.281zm23.444 10.144h-6.157l-1.816 5.294h-1.107L19.858.281h1.085l5.472 15.438h-1.157l-1.814-5.294zm-.307-.915l-.991-2.881c-.301-.882-.599-1.764-.895-2.646a58.965 58.965 0 0 1-.826-2.695h-.094a57.724 57.724 0 0 1-.825 2.695c-.284.842-.583 1.725-.896 2.646l-.992 2.881h5.519zm5.59-9.229h1.084v8.573h.047L37.383.281h1.272l-4.952 5.717 5.636 9.721H38.09l-5.117-8.901-3.162 3.582v5.318h-1.084V.281zm12.996 0h8.491v.937h-7.406v5.833h6.227v.938h-6.227v6.793h7.641v.938h-8.726V.281zm19.999.937H56.77V.281h10.967v.937h-4.931v14.501h-1.084V1.218zm8.844-.937h1.085v6.77h8.301V.281h1.086v15.438h-1.086v-7.73h-8.301v7.73h-1.085V.281zm14.907 0h1.083V15.72h-1.083V.281zm4.975 12.651a6.256 6.256 0 0 0 2.028 1.521 5.872 5.872 0 0 0 2.547.563c1.179 0 2.12-.285 2.818-.855.699-.568 1.049-1.315 1.049-2.237 0-.483-.075-.892-.223-1.218a2.797 2.797 0 0 0-.602-.855 3.883 3.883 0 0 0-.898-.632 23.512 23.512 0 0 0-1.083-.528l-2.359-1.056a11.58 11.58 0 0 1-1.05-.514 4.505 4.505 0 0 1-1.014-.76 3.98 3.98 0 0 1-.767-1.078c-.205-.413-.308-.91-.308-1.489 0-.56.113-1.073.343-1.533.227-.461.549-.868.944-1.196a4.433 4.433 0 0 1 1.425-.783A5.527 5.527 0 0 1 95.095 0c.941 0 1.785.184 2.523.551.738.368 1.344.8 1.817 1.299l-.638.727a5.329 5.329 0 0 0-1.604-1.16c-.613-.289-1.312-.435-2.098-.435-1.039 0-1.867.251-2.489.75-.619.5-.931 1.171-.931 2.014 0 .455.086.836.259 1.149.173.312.394.582.662.807.265.228.557.422.872.585.315.167.613.31.896.435l2.359 1.031c.425.187.833.398 1.225.633.392.232.739.508 1.039.82.299.312.537.682.72 1.111.18.43.271.939.271 1.535a3.813 3.813 0 0 1-1.357 2.963 4.821 4.821 0 0 1-1.569.865c-.615.215-1.298.32-2.053.32-1.131 0-2.134-.216-3.006-.646a7.161 7.161 0 0 1-2.227-1.675l.682-.747zm19.762-3.467L105.541.28h1.157l2.359 4.828c.267.562.533 1.115.801 1.663.266.545.55 1.101.848 1.664h.096c.299-.563.589-1.118.872-1.664.283-.548.558-1.102.826-1.663L114.858.28h1.11l-4.671 9.185v6.254h-1.086l-.001-6.254zM123.326 16c-.945 0-1.811-.192-2.596-.574a5.89 5.89 0 0 1-2.028-1.627c-.567-.703-1.007-1.551-1.321-2.543-.314-.99-.472-2.097-.472-3.315s.158-2.314.472-3.29c.314-.976.754-1.811 1.321-2.506A5.666 5.666 0 0 1 120.73.552c.786-.368 1.651-.552 2.596-.552.926 0 1.783.184 2.57.551a5.688 5.688 0 0 1 2.028 1.593c.565.694 1.007 1.53 1.32 2.507.313.976.472 2.072.472 3.29s-.158 2.324-.472 3.316-.755 1.838-1.32 2.542a5.914 5.914 0 0 1-2.028 1.628 5.825 5.825 0 0 1-2.57.573m0-.984c.786 0 1.5-.166 2.146-.503a4.89 4.89 0 0 0 1.662-1.43c.463-.618.821-1.358 1.074-2.226.252-.868.375-1.84.375-2.917 0-1.062-.123-2.021-.375-2.881-.254-.857-.612-1.59-1.074-2.191a4.865 4.865 0 0 0-1.662-1.392c-.647-.33-1.361-.493-2.146-.493a4.714 4.714 0 0 0-3.832 1.885c-.465.601-.822 1.334-1.072 2.191-.254.86-.378 1.819-.378 2.881 0 1.078.125 2.049.378 2.917.251.866.607 1.607 1.072 2.226a4.862 4.862 0 0 0 1.673 1.43 4.634 4.634 0 0 0 2.159.503M133.064.281h1.086v9.395c0 1.031.113 1.885.343 2.563.226.681.529 1.228.907 1.64.359.402.814.705 1.321.879.509.174 1.043.26 1.581.259.564 0 1.1-.085 1.603-.259.503-.17.95-.465 1.347-.879.393-.412.699-.959.93-1.64.227-.679.342-1.532.342-2.563V.281h1.038v9.512c0 1.201-.147 2.201-.448 2.996-.298.799-.69 1.436-1.18 1.909a4.071 4.071 0 0 1-1.688 1.01 6.658 6.658 0 0 1-3.9 0 4.087 4.087 0 0 1-1.676-1.01c-.486-.474-.877-1.11-1.168-1.909-.289-.795-.436-1.795-.436-2.996V.281h-.002zm23.446 15.438l-4.199-7.099h-3.302v7.099h-1.087V.281h4.437c.771 0 1.47.075 2.1.223.628.147 1.166.386 1.614.713.447.327.805.761 1.039 1.264.242.517.365 1.142.365 1.874 0 1.235-.357 2.199-1.074 2.893-.714.695-1.686 1.128-2.912 1.302l4.268 7.167-1.249.002zm-4.434-7.988c1.383 0 2.441-.278 3.17-.833.734-.554 1.099-1.401 1.099-2.542 0-1.156-.364-1.97-1.099-2.447-.729-.476-1.787-.715-3.17-.715h-3.066v6.537h3.066zM165.66.281h1.508l3.256 9.066 1.226 3.42h.096l1.202-3.42 3.23-9.066h1.533v15.438h-1.061V5.575c0-.64.016-1.333.047-2.074.03-.742.063-1.439.094-2.097h-.094l-1.203 3.397-3.349 9.23h-.944l-3.347-9.23-1.228-3.397h-.094c.031.657.06 1.356.082 2.098.023.74.035 1.433.035 2.073v10.143h-.99V.281h.001zM187.547 16c-.945 0-1.81-.192-2.594-.574a5.888 5.888 0 0 1-2.03-1.627c-.565-.703-1.006-1.551-1.321-2.543-.314-.99-.472-2.097-.472-3.315s.157-2.314.472-3.29c.315-.977.756-1.811 1.321-2.506a5.684 5.684 0 0 1 2.03-1.593c.785-.368 1.65-.552 2.594-.552.927 0 1.783.184 2.572.551a5.73 5.73 0 0 1 2.026 1.593c.565.694 1.005 1.53 1.32 2.507.313.976.472 2.072.472 3.29s-.158 2.324-.472 3.316c-.315.992-.755 1.838-1.32 2.542a5.917 5.917 0 0 1-2.026 1.628 5.83 5.83 0 0 1-2.572.573m0-.984c.785 0 1.5-.166 2.146-.503a4.875 4.875 0 0 0 1.663-1.43c.465-.618.821-1.358 1.074-2.226.251-.868.376-1.84.376-2.917 0-1.062-.125-2.021-.376-2.881-.254-.857-.611-1.59-1.074-2.191a4.86 4.86 0 0 0-1.663-1.392c-.646-.33-1.36-.493-2.146-.493-.787 0-1.508.163-2.158.493a4.819 4.819 0 0 0-1.674 1.392c-.463.601-.822 1.334-1.074 2.191-.252.86-.377 1.819-.377 2.881 0 1.078.127 2.049.377 2.917.252.866.611 1.607 1.074 2.226a4.856 4.856 0 0 0 1.674 1.43c.65.337 1.372.503 2.158.503m9.81-14.735h1.508l3.256 9.066 1.229 3.42h.093l1.205-3.42 3.231-9.066h1.531v15.438h-1.061V5.575c0-.64.015-1.333.047-2.074.03-.742.062-1.439.094-2.097h-.094l-1.204 3.397-3.349 9.23h-.944l-3.349-9.23-1.227-3.397h-.096c.032.656.061 1.355.084 2.097.023.692.034 1.382.035 2.074v10.144h-.99V.281h.001zm16.487 0h8.489v.937h-7.405v5.833h6.228v.938h-6.228v6.793h7.643v.938h-8.727V.281zm11.957 0h1.133l6.534 10.893 1.767 3.07h.095a811 811 0 0 0-.095-2.249c-.031-.75-.047-1.5-.047-2.25V.281h1.016v15.438h-1.134l-6.532-10.893-1.769-3.068h-.095c.031.75.063 1.48.095 2.19.032.712.048 1.44.048 2.19v9.582h-1.016V.281zm18.183.937h-4.952V.281H250v.937h-4.93v14.501h-1.086V1.218z"/></svg>